<svg id="Camada_1" data-name="Camada 1" xmlns="http://www.w3.org/2000/svg" viewBox="0 0 500 500"><defs><style>.cls-1{fill:#fff;}</style></defs><path class="cls-1" d="M426.1,250.46V421.8c0,7.75-1.22,15.16-5.05,22-8.61,15.42-22.09,24.3-41,24.3-86.64.18-173.29,0-259.94.09a46,46,0,0,1-42.2-26.57,47.7,47.7,0,0,1-4-20V158.48a37.62,37.62,0,0,1,1.5-10.72,31.37,31.37,0,0,1,9.73-15.24c6.08-5.23,12.26-10.28,18.34-15.33,12.16-10.19,24.42-20.38,36.58-30.57,3.75-3.14,7.58-6.36,11.42-9.5,4-3.31,8.7-3.74,12.73-1.22A10.12,10.12,0,0,1,168.59,88,12.15,12.15,0,0,1,165,92.8l-20.31,17.07c-10.57,8.89-21.14,17.69-31.62,26.57-4.31,3.66-8.71,7.23-13,10.89-5,4.18-6.46,10.63-3.56,16.2a12.92,12.92,0,0,0,11.61,7.32h64a24.88,24.88,0,0,0,17-6.27,23.75,23.75,0,0,0,7.95-15.68c.1-1.22.1-2.53.1-3.75V78.25a43.24,43.24,0,0,1,5-21c7.29-13.5,18.9-21.86,35.08-24.21a40,40,0,0,1,6.46-.35c45.29,0,90.48-.09,135.77,0,16.56,0,29.38,6.79,38.55,19.42a42.72,42.72,0,0,1,8.05,24.22V250.46ZM285.28,364.22h29.19c10.2,0,20.49.09,30.69,0,6.18-.08,10.48-4.44,10.48-10.28s-4.3-10.19-10.39-10.45h-120a10.37,10.37,0,0,0-3.55,20.12,14.35,14.35,0,0,0,5,.61Zm0-72.56H225.2c-5.89.35-10,4.27-10.29,9.93-.28,5.32,3.65,9.85,9.26,10.63a17.74,17.74,0,0,0,3.09.09H344.6c5.71,0,9.54-2.88,10.85-7.93A10.19,10.19,0,0,0,348.06,292a15.85,15.85,0,0,0-4.49-.35Q314.38,291.79,285.28,291.66Zm0-31.09h59.51a11.72,11.72,0,0,0,5.42-1.22,10.29,10.29,0,0,0,5.34-11.41c-1.22-5-5-7.93-10.3-8.1H225.39c-5,.17-8.61,2.78-10.1,7.23a10.27,10.27,0,0,0,8,13.24,16.35,16.35,0,0,0,3.56.17Q256.08,260.62,285.28,260.57ZM163.82,364.22h8.52a11.68,11.68,0,0,0,5.14-1.13,10.43,10.43,0,0,0,5.34-12,10.2,10.2,0,0,0-10.2-7.58c-5.8-.08-11.7,0-17.5,0a10.34,10.34,0,0,0-3.56.61,10,10,0,0,0-7,10.54c.28,5.58,4.49,9.5,10.48,9.67C157.93,364.22,160.83,364.22,163.82,364.22Zm-.09-124.3h-8.8a10.23,10.23,0,0,0-10.38,11.59c.46,5.22,4.67,9.06,10.29,9.14,5.89.09,11.79,0,17.68,0a10.81,10.81,0,0,0,3.75-.61A10.35,10.35,0,0,0,183,248.89,10,10,0,0,0,172.9,240C169.9,239.84,166.82,239.92,163.73,239.92Zm0,72.48h8.7a10.63,10.63,0,0,0,6.46-2,10.1,10.1,0,0,0,3.55-11.84c-1.4-4.1-5.05-6.71-9.92-6.8-5.89-.09-11.79,0-17.68,0a12.66,12.66,0,0,0-3.09.44c-5.24,1.56-7.95,6.09-7.2,11.76.65,4.7,4.86,8.27,10.1,8.45C157.74,312.48,160.73,312.4,163.73,312.4Z"/></svg>