<svg id="Camada_1" data-name="Camada 1" xmlns="http://www.w3.org/2000/svg" viewBox="0 0 500 500"><defs><style>.cls-1{fill:#fff;}.cls-2{fill:#fdfdfd;}</style></defs><path class="cls-1" d="M467.78,247.7c2.89,118.93-95.62,219.91-216.41,220.53-119,.6-217.72-95.15-219.38-215C30.32,132.55,128.58,32.88,249.45,32.66,368.15,32.44,466.87,127.94,467.78,247.7ZM250.05,53c-108.54-.26-197.56,88.09-198,196.46C51.67,358.58,140,447.69,248.92,448c109.5.33,198.68-87.73,199-196.47A197.78,197.78,0,0,0,250.05,53Z"/><path class="cls-2" d="M250.05,53A197.78,197.78,0,0,1,447.91,251.54c-.31,108.74-89.49,196.8-199,196.47C140,447.69,51.67,358.58,52.08,249.44,52.49,141.07,141.51,52.72,250.05,53Zm20.51,150.17a25.13,25.13,0,0,0-.35-6.92c-1.13-6.69-8.08-11-17.37-10.94s-16.09,4.45-17.14,11.16a38.29,38.29,0,0,0-.29,5.86q0,77.93,0,155.85a39.47,39.47,0,0,0,.28,5.86c1.14,7.6,10.58,12.57,20.64,11,6.07-1,10.05-3,12.22-6.56a15.92,15.92,0,0,0,2-8.36Q270.54,203.27,270.56,203.15Zm2.58-65.91c.09-10.36-8.78-19-19.67-19.24s-20.29,8.32-20.54,18.46C232.67,147,241.85,156,253,156S273.05,147.55,273.14,137.24Z"/></svg>